<svg width="34" height="30" viewBox="0 0 34 30" fill="none" xmlns="http://www.w3.org/2000/svg">
<path d="M28.7464 8.63787V5.36515C28.7464 2.66515 26.5373 0.456055 23.8373 0.456055H10.7464C8.0464 0.456055 5.83731 2.66515 5.83731 5.36515V8.63787C3.13731 8.63787 0.928223 10.847 0.928223 13.547V21.7288C0.928223 24.4288 3.13731 26.6379 5.83731 26.6379V29.9106H9.11004V26.6379H25.4737V29.9106H28.7464V26.6379C31.4464 26.6379 33.6555 24.4288 33.6555 21.7288V13.547C33.6555 10.847 31.4464 8.63787 28.7464 8.63787ZM9.11004 5.36515C9.11004 4.46515 9.8464 3.72878 10.7464 3.72878H23.8373C24.7373 3.72878 25.4737 4.46515 25.4737 5.36515V9.91424C24.4755 10.8142 23.8373 12.107 23.8373 13.547V16.8197H10.7464V13.547C10.7464 12.107 10.1082 10.8142 9.11004 9.91424V5.36515ZM30.3828 21.7288C30.3828 22.6288 29.6464 23.3651 28.7464 23.3651H5.83731C4.93731 23.3651 4.20095 22.6288 4.20095 21.7288V13.547C4.20095 12.647 4.93731 11.9106 5.83731 11.9106C6.73731 11.9106 7.47368 12.647 7.47368 13.547V20.0924H27.11V13.547C27.11 12.647 27.8464 11.9106 28.7464 11.9106C29.6464 11.9106 30.3828 12.647 30.3828 13.547V21.7288Z" fill="white"/>
</svg>
