<svg width="23" height="26" viewBox="0 0 23 26" fill="none" xmlns="http://www.w3.org/2000/svg">
<path d="M22.5833 18.625C22.5833 19.1 22.3208 19.5125 21.9208 19.725L12.0458 25.275C11.8458 25.425 11.5958 25.5 11.3333 25.5C11.0708 25.5 10.8208 25.425 10.6208 25.275L0.745752 19.725C0.345752 19.5125 0.083252 19.1 0.083252 18.625V7.375C0.083252 6.9 0.345752 6.4875 0.745752 6.275L10.6208 0.725C10.8208 0.575 11.0708 0.5 11.3333 0.5C11.5958 0.5 11.8458 0.575 12.0458 0.725L21.9208 6.275C22.3208 6.4875 22.5833 6.9 22.5833 7.375V18.625ZM11.3333 3.1875L3.88325 7.375L11.3333 11.5625L18.7833 7.375L11.3333 3.1875ZM2.58325 17.8875L10.0833 22.1125V13.725L2.58325 9.5125V17.8875ZM20.0833 17.8875V9.5125L12.5833 13.725V22.1125L20.0833 17.8875Z" fill="#424242"/>
</svg>
