<svg width="20" height="20" viewBox="0 0 20 20" fill="none" xmlns="http://www.w3.org/2000/svg">
<path d="M15.3923 16.6893C13.78 17.7119 11.9096 18.2535 10.0004 18.2504C5.05776 18.2504 0.945591 14.6938 0.0830078 10.0004C0.477202 7.86525 1.55117 5.91475 3.14467 4.43993L0.276424 1.57443L1.57351 0.277344L19.7226 18.4273L18.4255 19.7235L15.3913 16.6893H15.3923ZM4.44084 5.73793C3.1951 6.87055 2.3273 8.35848 1.95484 10.0004C2.24111 11.253 2.81583 12.4215 3.63326 13.4128C4.45069 14.4041 5.48825 15.191 6.66335 15.7106C7.83845 16.2303 9.11863 16.4685 10.402 16.4062C11.6854 16.3439 12.9365 15.9829 14.0558 15.3519L12.1968 13.4929C11.4054 13.9914 10.4681 14.2062 9.53864 14.102C8.60918 13.9978 7.74271 13.5808 7.08136 12.9195C6.42002 12.2581 6.00305 11.3917 5.89886 10.4622C5.79466 9.53274 6.00943 8.59546 6.50792 7.80409L4.44084 5.73793ZM10.8383 12.1344L7.86642 9.16259C7.70332 9.57778 7.66493 10.0316 7.75597 10.4682C7.84701 10.9049 8.06352 11.3056 8.37895 11.621C8.69438 11.9364 9.095 12.1529 9.53169 12.244C9.96838 12.335 10.4221 12.2966 10.8373 12.1335L10.8383 12.1344ZM18.0735 14.2098L16.7618 12.8989C17.3745 12.0256 17.8108 11.041 18.046 10.0004C17.7969 8.90934 17.3285 7.88031 16.6693 6.97588C16.0101 6.07145 15.1739 5.31051 14.2115 4.73931C13.2491 4.16812 12.1805 3.7986 11.0708 3.65321C9.96117 3.50782 8.83351 3.58961 7.75642 3.89359L6.30992 2.44709C7.45301 1.99793 8.69876 1.75043 10.0004 1.75043C14.9431 1.75043 19.0553 5.30709 19.9178 10.0004C19.637 11.5273 19.0056 12.9682 18.0735 14.2098ZM9.74651 5.88276C10.33 5.8467 10.9144 5.93507 11.4612 6.14201C12.0079 6.34895 12.5044 6.66973 12.9178 7.08309C13.3311 7.49645 13.6519 7.99295 13.8588 8.53968C14.0658 9.08641 14.1541 9.67088 14.1181 10.2543L9.74559 5.88276H9.74651Z" fill="#303030"/>
</svg>
