<svg width="28" height="30" viewBox="0 0 28 30" fill="none" xmlns="http://www.w3.org/2000/svg">
<path d="M27.1667 21.75C27.1667 22.32 26.8517 22.815 26.3717 23.07L14.5217 29.73C14.2817 29.91 13.9817 30 13.6667 30C13.3517 30 13.0517 29.91 12.8117 29.73L0.961748 23.07C0.481748 22.815 0.166748 22.32 0.166748 21.75V8.25C0.166748 7.68 0.481748 7.185 0.961748 6.93L12.8117 0.27C13.0517 0.0900001 13.3517 0 13.6667 0C13.9817 0 14.2817 0.0900001 14.5217 0.27L26.3717 6.93C26.8517 7.185 27.1667 7.68 27.1667 8.25V21.75ZM13.6667 3.225L4.72675 8.25L13.6667 13.275L22.6067 8.25L13.6667 3.225ZM3.16675 20.865L12.1667 25.935V15.87L3.16675 10.815V20.865ZM24.1667 20.865V10.815L15.1667 15.87V25.935L24.1667 20.865Z" fill="#7210BE"/>
</svg>
