<svg width="24" height="25" viewBox="0 0 24 25" fill="none" xmlns="http://www.w3.org/2000/svg">
<path d="M21.4302 16.7341L22.8325 17.5753C22.919 17.6271 22.9906 17.7004 23.0403 17.7881C23.0901 17.8758 23.1162 17.9749 23.1162 18.0758C23.1162 18.1766 23.0901 18.2757 23.0403 18.3634C22.9906 18.4511 22.919 18.5245 22.8325 18.5763L12.6008 24.7153C12.4194 24.8243 12.2117 24.8819 12 24.8819C11.7883 24.8819 11.5806 24.8243 11.3992 24.7153L1.16749 18.5763C1.08098 18.5245 1.00937 18.4511 0.959647 18.3634C0.909925 18.2757 0.883789 18.1766 0.883789 18.0758C0.883789 17.9749 0.909925 17.8758 0.959647 17.7881C1.00937 17.7004 1.08098 17.6271 1.16749 17.5753L2.56983 16.7341L12 22.3924L21.4302 16.7341ZM21.4302 11.2508L22.8325 12.0919C22.919 12.1437 22.9906 12.2171 23.0403 12.3048C23.0901 12.3925 23.1162 12.4916 23.1162 12.5924C23.1162 12.6933 23.0901 12.7924 23.0403 12.8801C22.9906 12.9678 22.919 13.0411 22.8325 13.0929L12 19.5924L1.16749 13.0929C1.08098 13.0411 1.00937 12.9678 0.959647 12.8801C0.909925 12.7924 0.883789 12.6933 0.883789 12.5924C0.883789 12.4916 0.909925 12.3925 0.959647 12.3048C1.00937 12.2171 1.08098 12.1437 1.16749 12.0919L2.56983 11.2508L12 16.9091L21.4302 11.2508ZM12.5997 0.52794L22.8325 6.66694C22.919 6.71873 22.9906 6.79206 23.0403 6.87978C23.0901 6.9675 23.1162 7.06661 23.1162 7.16744C23.1162 7.26827 23.0901 7.36738 23.0403 7.4551C22.9906 7.54282 22.919 7.61615 22.8325 7.66794L12 14.1674L1.16749 7.66794C1.08098 7.61615 1.00937 7.54282 0.959647 7.4551C0.909925 7.36738 0.883789 7.26827 0.883789 7.16744C0.883789 7.06661 0.909925 6.9675 0.959647 6.87978C1.00937 6.79206 1.08098 6.71873 1.16749 6.66694L11.3992 0.52794C11.5806 0.418922 11.7883 0.361328 12 0.361328C12.2117 0.361328 12.4194 0.418922 12.6008 0.52794H12.5997ZM12 2.88811L4.86816 7.16744L12 11.4468L19.1318 7.16744L12 2.88811Z" fill="#B8B8B8"/>
</svg>
