<svg width="25" height="21" viewBox="0 0 25 21" fill="none" xmlns="http://www.w3.org/2000/svg">
<path d="M0.333496 16.9993H8.50016V19.3327H0.333496V16.9993ZM0.333496 8.83268H10.8335V11.166H0.333496V8.83268ZM0.333496 0.666016H23.6668V2.99935H0.333496V0.666016ZM22.1198 11.1952L23.4685 10.739L24.6352 12.7597L23.5665 13.6988C23.701 14.3366 23.701 14.9954 23.5665 15.6332L24.6352 16.5724L23.4685 18.593L22.1198 18.1369C21.6415 18.5685 21.0722 18.901 20.4457 19.1052L20.1668 20.4993H17.8335L17.5535 19.104C16.9343 18.9017 16.3644 18.5718 15.8805 18.1357L14.5318 18.593L13.3652 16.5724L14.4338 15.6332C14.2993 14.9954 14.2993 14.3366 14.4338 13.6988L13.3652 12.7597L14.5318 10.739L15.8805 11.1952C16.3588 10.7635 16.9282 10.431 17.5547 10.2268L17.8335 8.83268H20.1668L20.4468 10.228C21.0722 10.431 21.6415 10.7647 22.1198 11.1964V11.1952ZM19.0002 16.9993C19.619 16.9993 20.2125 16.7535 20.6501 16.3159C21.0877 15.8783 21.3335 15.2849 21.3335 14.666C21.3335 14.0472 21.0877 13.4537 20.6501 13.0161C20.2125 12.5785 19.619 12.3327 19.0002 12.3327C18.3813 12.3327 17.7878 12.5785 17.3502 13.0161C16.9127 13.4537 16.6668 14.0472 16.6668 14.666C16.6668 15.2849 16.9127 15.8783 17.3502 16.3159C17.7878 16.7535 18.3813 16.9993 19.0002 16.9993Z" fill="#B8B8B8"/>
</svg>
