<svg width="17" height="18" viewBox="0 0 17 18" fill="none" xmlns="http://www.w3.org/2000/svg">
<g clip-path="url(#clip0_3321_10271)">
<path d="M8.49996 16.0832C4.58783 16.0832 1.41663 12.912 1.41663 8.99984C1.41663 5.08771 4.58783 1.91651 8.49996 1.91651C9.59976 1.91568 10.6846 2.17134 11.6683 2.66319C12.652 3.15503 13.5074 3.8695 14.1666 4.74984H12.247C11.4291 4.02859 10.4204 3.55868 9.34196 3.3965C8.26356 3.23432 7.16126 3.38676 6.16734 3.83553C5.17342 4.2843 4.33011 5.01034 3.73859 5.92651C3.14708 6.84269 2.83249 7.91009 2.83258 9.00062C2.83267 10.0912 3.14744 11.1585 3.7391 12.0746C4.33077 12.9907 5.1742 13.7166 6.1682 14.1652C7.16219 14.6138 8.26452 14.766 9.3429 14.6037C10.4213 14.4413 11.4299 13.9712 12.2478 13.2498H14.1673C13.508 14.1303 12.6525 14.8448 11.6687 15.3366C10.6849 15.8285 9.59988 16.0841 8.49996 16.0832V16.0832ZM13.4583 11.8332V9.70817H7.79163V8.29151H13.4583V6.16651L17 8.99984L13.4583 11.8332Z" fill="#BC2020"/>
</g>
<defs>
<clipPath id="clip0_3321_10271">
<rect width="17" height="17" fill="white" transform="translate(0 0.5)"/>
</clipPath>
</defs>
</svg>
