<svg width="26" height="24" viewBox="0 0 26 24" fill="none" xmlns="http://www.w3.org/2000/svg">
<path d="M1.4165 0.75H23.9165C24.248 0.75 24.566 0.881696 24.8004 1.11612C25.0348 1.35054 25.1665 1.66848 25.1665 2V22C25.1665 22.3315 25.0348 22.6495 24.8004 22.8839C24.566 23.1183 24.248 23.25 23.9165 23.25H1.4165C1.08498 23.25 0.767041 23.1183 0.53262 22.8839C0.2982 22.6495 0.166504 22.3315 0.166504 22V2C0.166504 1.66848 0.2982 1.35054 0.53262 1.11612C0.767041 0.881696 1.08498 0.75 1.4165 0.75ZM22.6665 6.0475L12.7565 14.9225L2.6665 6.02V20.75H22.6665V6.0475ZM3.30525 3.25L12.7428 11.5775L22.044 3.25H3.30525Z" fill="#424242"/>
</svg>
