<svg width="17" height="18" viewBox="0 0 17 18" fill="none" xmlns="http://www.w3.org/2000/svg">
<g clip-path="url(#clip0_3321_10265)">
<path d="M4.57225 13.9583L1.41663 16.4375V3.33333C1.41663 3.14547 1.49125 2.9653 1.62409 2.83247C1.75693 2.69963 1.9371 2.625 2.12496 2.625H14.875C15.0628 2.625 15.243 2.69963 15.3758 2.83247C15.5087 2.9653 15.5833 3.14547 15.5833 3.33333V13.25C15.5833 13.4379 15.5087 13.618 15.3758 13.7509C15.243 13.8837 15.0628 13.9583 14.875 13.9583H4.57225ZM4.08208 12.5417H14.1666V4.04167H2.83329V13.5227L4.08208 12.5417ZM7.79163 7.58333H9.20829V9H7.79163V7.58333ZM4.95829 7.58333H6.37496V9H4.95829V7.58333ZM10.625 7.58333H12.0416V9H10.625V7.58333Z" fill="#303030"/>
</g>
<defs>
<clipPath id="clip0_3321_10265">
<rect width="17" height="17" fill="white" transform="translate(0 0.5)"/>
</clipPath>
</defs>
</svg>
