<svg width="15" height="16" viewBox="0 0 15 16" fill="none" xmlns="http://www.w3.org/2000/svg">
<path d="M6.79163 7.29102V4.45768H8.20829V7.29102H11.0416V8.70768H8.20829V11.541H6.79163V8.70768H3.95829V7.29102H6.79163ZM7.49996 15.0827C3.58783 15.0827 0.416626 11.9115 0.416626 7.99935C0.416626 4.08722 3.58783 0.916016 7.49996 0.916016C11.4121 0.916016 14.5833 4.08722 14.5833 7.99935C14.5833 11.9115 11.4121 15.0827 7.49996 15.0827ZM7.49996 13.666C9.00285 13.666 10.4442 13.069 11.5069 12.0063C12.5696 10.9436 13.1666 9.50224 13.1666 7.99935C13.1666 6.49646 12.5696 5.05512 11.5069 3.99241C10.4442 2.9297 9.00285 2.33268 7.49996 2.33268C5.99707 2.33268 4.55573 2.9297 3.49302 3.99241C2.43032 5.05512 1.83329 6.49646 1.83329 7.99935C1.83329 9.50224 2.43032 10.9436 3.49302 12.0063C4.55573 13.069 5.99707 13.666 7.49996 13.666Z" fill="#303030"/>
</svg>
