<svg width="30" height="30" viewBox="0 0 30 30" fill="none" xmlns="http://www.w3.org/2000/svg">
<path d="M12.4998 7.5V10H6.24976V23.75H19.9998V17.5H22.4998V25C22.4998 25.3315 22.3681 25.6495 22.1336 25.8839C21.8992 26.1183 21.5813 26.25 21.2498 26.25H4.99976C4.66824 26.25 4.35029 26.1183 4.11587 25.8839C3.88145 25.6495 3.74976 25.3315 3.74976 25V8.75C3.74976 8.41848 3.88145 8.10054 4.11587 7.86612C4.35029 7.6317 4.66824 7.5 4.99976 7.5H12.4998ZM26.2498 3.75V13.75H23.7498V8.01625L14.0085 17.7588L12.241 15.9913L21.981 6.25H16.2498V3.75H26.2498Z" fill="#424242"/>
</svg>
