<svg width="14" height="14" viewBox="0 0 14 14" fill="none" xmlns="http://www.w3.org/2000/svg">
<path d="M1.66634 4.33398H12.333V13.0007C12.333 13.1775 12.2628 13.347 12.1377 13.4721C12.0127 13.5971 11.8432 13.6673 11.6663 13.6673H2.33301C2.1562 13.6673 1.98663 13.5971 1.8616 13.4721C1.73658 13.347 1.66634 13.1775 1.66634 13.0007V4.33398ZM2.99967 5.66732V12.334H10.9997V5.66732H2.99967ZM4.99967 7.00065H6.33301V11.0007H4.99967V7.00065ZM7.66634 7.00065H8.99967V11.0007H7.66634V7.00065ZM3.66634 2.33398V1.00065C3.66634 0.82384 3.73658 0.654271 3.8616 0.529246C3.98663 0.404222 4.1562 0.333984 4.33301 0.333984H9.66634C9.84315 0.333984 10.0127 0.404222 10.1377 0.529246C10.2628 0.654271 10.333 0.82384 10.333 1.00065V2.33398H13.6663V3.66732H0.333008V2.33398H3.66634ZM4.99967 1.66732V2.33398H8.99967V1.66732H4.99967Z" fill="#686868"/>
</svg>
