<svg width="28" height="26" viewBox="0 0 28 26" fill="none" xmlns="http://www.w3.org/2000/svg">
<path d="M13.9996 13.7325L19.3034 19.035L17.5346 20.8037L15.2496 18.5188V25.5H12.7496V18.5163L10.4646 20.8037L8.69587 19.035L13.9996 13.7325ZM13.9996 0.5C16.1459 0.500102 18.2172 1.28889 19.8199 2.7164C21.4225 4.1439 22.4447 6.11058 22.6921 8.2425C24.2475 8.66665 25.6043 9.62388 26.5255 10.9469C27.4466 12.2699 27.8736 13.8746 27.7316 15.4805C27.5897 17.0864 26.888 18.5913 25.7491 19.7323C24.6102 20.8732 23.1065 21.5777 21.5009 21.7225L21.4996 19.25C21.5016 17.2839 20.7315 15.3957 19.3551 13.9918C17.9786 12.5879 16.106 11.7807 14.1403 11.7438C12.1746 11.7069 10.273 12.4434 8.84485 13.7947C7.41676 15.146 6.57638 17.004 6.50462 18.9688L6.49962 19.25V21.7225C4.89394 21.5779 3.39013 20.8736 2.25104 19.7327C1.11195 18.5919 0.410032 17.0869 0.267966 15.481C0.1259 13.8751 0.552723 12.2704 1.47383 10.9472C2.39495 9.62408 3.75176 8.66673 5.30712 8.2425C5.55426 6.11047 6.57638 4.14364 8.1791 2.71608C9.78182 1.28852 11.8533 0.499829 13.9996 0.5Z" fill="#9E35EE"/>
</svg>
