<svg width="24" height="25" viewBox="0 0 24 25" fill="none" xmlns="http://www.w3.org/2000/svg">
<path d="M0 25C0 22.4741 0.963263 20.0517 2.67788 18.2656C4.3925 16.4796 6.71802 15.4762 9.14286 15.4762C11.5677 15.4762 13.8932 16.4796 15.6078 18.2656C17.3225 20.0517 18.2857 22.4741 18.2857 25H16C16 23.1056 15.2776 21.2888 13.9916 19.9492C12.7056 18.6097 10.9615 17.8571 9.14286 17.8571C7.32423 17.8571 5.58009 18.6097 4.29413 19.9492C3.00816 21.2888 2.28571 23.1056 2.28571 25H0ZM9.14286 14.2857C5.35429 14.2857 2.28571 11.0893 2.28571 7.14286C2.28571 3.19643 5.35429 0 9.14286 0C12.9314 0 16 3.19643 16 7.14286C16 11.0893 12.9314 14.2857 9.14286 14.2857ZM9.14286 11.9048C11.6686 11.9048 13.7143 9.77381 13.7143 7.14286C13.7143 4.5119 11.6686 2.38095 9.14286 2.38095C6.61714 2.38095 4.57143 4.5119 4.57143 7.14286C4.57143 9.77381 6.61714 11.9048 9.14286 11.9048ZM18.6103 16.3131C20.2164 17.0666 21.5794 18.2872 22.5355 19.8282C23.4916 21.3693 24.0002 23.1651 24 25H21.7143C21.7145 23.6238 21.3332 22.2768 20.6161 21.1209C19.899 19.9651 18.8767 19.0496 17.672 18.4845L18.6091 16.3131H18.6103ZM17.824 2.87262C18.9755 3.36702 19.96 4.20659 20.6526 5.2848C21.3452 6.363 21.7148 7.63124 21.7143 8.92857C21.7148 10.5623 21.1288 12.1372 20.0715 13.3438C19.0142 14.5505 17.5619 15.3017 16 15.45V13.0536C16.8468 12.9272 17.6324 12.5215 18.2415 11.8958C18.8506 11.2701 19.2511 10.4575 19.3842 9.5773C19.5173 8.69708 19.376 7.79559 18.981 7.00518C18.586 6.21477 17.9582 5.57708 17.1897 5.18571L17.824 2.87262Z" fill="#B8B8B8"/>
</svg>
