<svg width="17" height="18" viewBox="0 0 17 18" fill="none" xmlns="http://www.w3.org/2000/svg">
<g clip-path="url(#clip0_3321_10259)">
<path d="M2.83325 16.0835C2.83325 14.5806 3.43027 13.1393 4.49298 12.0766C5.55569 11.0139 6.99703 10.4168 8.49992 10.4168C10.0028 10.4168 11.4442 11.0139 12.5069 12.0766C13.5696 13.1393 14.1666 14.5806 14.1666 16.0835H12.7499C12.7499 14.9563 12.3022 13.8753 11.5051 13.0783C10.7081 12.2813 9.62709 11.8335 8.49992 11.8335C7.37275 11.8335 6.29174 12.2813 5.49471 13.0783C4.69769 13.8753 4.24992 14.9563 4.24992 16.0835H2.83325ZM8.49992 9.7085C6.15179 9.7085 4.24992 7.80662 4.24992 5.4585C4.24992 3.11037 6.15179 1.2085 8.49992 1.2085C10.848 1.2085 12.7499 3.11037 12.7499 5.4585C12.7499 7.80662 10.848 9.7085 8.49992 9.7085ZM8.49992 8.29183C10.0653 8.29183 11.3333 7.02391 11.3333 5.4585C11.3333 3.89308 10.0653 2.62516 8.49992 2.62516C6.9345 2.62516 5.66659 3.89308 5.66659 5.4585C5.66659 7.02391 6.9345 8.29183 8.49992 8.29183Z" fill="#303030"/>
</g>
<defs>
<clipPath id="clip0_3321_10259">
<rect width="17" height="17" fill="white" transform="translate(0 0.5)"/>
</clipPath>
</defs>
</svg>
