<svg width="27" height="28" viewBox="0 0 27 28" fill="none" xmlns="http://www.w3.org/2000/svg">
<path d="M13.5006 27.3332C6.13657 27.3332 0.167236 21.3638 0.167236 13.9998C0.167236 6.63584 6.13657 0.666504 13.5006 0.666504C20.8646 0.666504 26.8339 6.63584 26.8339 13.9998C26.8339 21.3638 20.8646 27.3332 13.5006 27.3332ZM13.5006 24.6665C16.3295 24.6665 19.0427 23.5427 21.043 21.5423C23.0434 19.5419 24.1672 16.8288 24.1672 13.9998C24.1672 11.1709 23.0434 8.45775 21.043 6.45737C19.0427 4.45698 16.3295 3.33317 13.5006 3.33317C10.6716 3.33317 7.95849 4.45698 5.9581 6.45737C3.95771 8.45775 2.8339 11.1709 2.8339 13.9998C2.8339 16.8288 3.95771 19.5419 5.9581 21.5423C7.95849 23.5427 10.6716 24.6665 13.5006 24.6665ZM12.1712 19.3332L6.5139 13.6758L8.39924 11.7905L12.1712 15.5625L19.7126 8.01984L21.5992 9.90517L12.1712 19.3332Z" fill="#9E35EE"/>
</svg>
