<svg width="28" height="28" viewBox="0 0 28 28" fill="none" xmlns="http://www.w3.org/2000/svg">
<path d="M7.47143 25.7652L0.416763 27.3332L1.98476 20.2785C0.952139 18.347 0.413466 16.19 0.416763 13.9998C0.416763 6.63584 6.3861 0.666504 13.7501 0.666504C21.1141 0.666504 27.0834 6.63584 27.0834 13.9998C27.0834 21.3638 21.1141 27.3332 13.7501 27.3332C11.5599 27.3365 9.40292 26.7978 7.47143 25.7652ZM7.8581 22.9478L8.72876 23.4145C10.2735 24.24 11.9986 24.6702 13.7501 24.6665C15.8598 24.6665 17.9221 24.0409 19.6762 22.8688C21.4303 21.6968 22.7975 20.0309 23.6048 18.0818C24.4121 16.1327 24.6234 13.988 24.2118 11.9189C23.8002 9.84974 22.7843 7.94913 21.2926 6.45737C19.8008 4.96561 17.9002 3.9497 15.8311 3.53813C13.7619 3.12655 11.6172 3.33779 9.66814 4.14512C7.71906 4.95246 6.05316 6.31963 4.88109 8.07375C3.70902 9.82788 3.08343 11.8902 3.08343 13.9998C3.08343 15.7785 3.51676 17.4905 4.33676 19.0212L4.8021 19.8918L3.92876 23.8212L7.8581 22.9478Z" fill="#9E35EE"/>
</svg>
