<svg width="28" height="29" viewBox="0 0 28 29" fill="none" xmlns="http://www.w3.org/2000/svg">
<path d="M12.7832 0.799805L25.9819 2.68647L27.8672 15.8865L15.6112 28.1425C15.3612 28.3924 15.0221 28.5329 14.6685 28.5329C14.315 28.5329 13.9759 28.3924 13.7259 28.1425L0.52588 14.9425C0.275919 14.6924 0.135498 14.3534 0.135498 13.9998C0.135498 13.6463 0.275919 13.3072 0.52588 13.0571L12.7832 0.799805ZM13.7259 3.62914L3.35388 13.9998L14.6685 25.3131L25.0392 14.9425L23.6259 5.04247L13.7259 3.62914ZM16.5525 12.1145C16.0523 11.6141 15.7714 10.9355 15.7715 10.228C15.7716 9.87768 15.8407 9.53079 15.9748 9.20716C16.1089 8.88353 16.3055 8.58948 16.5532 8.3418C16.801 8.09413 17.0951 7.89768 17.4188 7.76368C17.7425 7.62967 18.0894 7.56073 18.4397 7.56079C19.1472 7.56092 19.8257 7.8421 20.3259 8.34247C20.8261 8.84285 21.107 9.52143 21.1069 10.2289C21.1068 10.9365 20.8256 11.6149 20.3252 12.1151C19.8248 12.6153 19.1463 12.8963 18.4387 12.8961C17.7312 12.896 17.0527 12.6148 16.5525 12.1145Z" fill="#9E35EE"/>
</svg>
