<svg width="40" height="25" viewBox="0 0 40 25" fill="none" xmlns="http://www.w3.org/2000/svg">
<g clip-path="url(#clip0_2436_17715)">
<path d="M38.333 24.998H1.667C0.75 24.998 0 24.278 0 23.398V2.59805C0 1.71805 0.75 0.998047 1.667 0.998047H38.333C39.25 0.998047 40 1.71805 40 2.59805V23.398C40 24.278 39.25 24.998 38.333 24.998Z" fill="white"/>
<path d="M6.25977 13.3179H8.57277L7.41477 10.6579M27.3528 10.9749H23.6148V12.2049H27.2808V13.5889H23.6058V14.9739H27.4268V15.9789C28.0498 15.2089 28.7568 14.5129 29.4518 13.7439L30.1588 12.9739C29.2248 11.9699 28.2888 10.8939 27.3548 9.89893V10.9759L27.3528 10.9749Z" fill="#1478BE"/>
<path d="M38.25 7.99805H32.645L31.317 9.39805L30.072 7.99805H16.984L15.967 10.414L14.877 7.99805H5.297L1.25 17.498H6.076L6.699 15.942H8.099L8.722 17.498H29.99L31.317 16.015L32.645 17.498H38.25L33.89 12.831L38.25 7.99805ZM20.565 16.098H19.008V10.881L16.673 16.098H15.343L13.01 10.881L12.926 16.098H9.73L9.107 14.542H5.837L5.132 16.098H3.42L6.304 9.32605H8.724L11.369 15.559V9.32805H14.015L16.122 13.838L17.99 9.32805H20.565V16.098ZM35.292 16.098H33.268L31.244 13.838L29.221 16.098H22.06V9.32605H29.53L31.325 11.503L33.349 9.32605H35.374L32.26 12.748L35.292 16.098Z" fill="#1478BE"/>
</g>
<defs>
<clipPath id="clip0_2436_17715">
<rect width="40" height="24" fill="white" transform="translate(0 0.998047)"/>
</clipPath>
</defs>
</svg>
