<svg width="24" height="24" viewBox="0 0 24 24" fill="none" xmlns="http://www.w3.org/2000/svg">
<g clip-path="url(#clip0_3104_6867)">
<path d="M17.0005 6H22.0005V8H20.0005V21C20.0005 21.2652 19.8951 21.5196 19.7076 21.7071C19.5201 21.8946 19.2657 22 19.0005 22H5.00049C4.73527 22 4.48092 21.8946 4.29338 21.7071C4.10585 21.5196 4.00049 21.2652 4.00049 21V8H2.00049V6H7.00049V3C7.00049 2.73478 7.10585 2.48043 7.29338 2.29289C7.48092 2.10536 7.73527 2 8.00049 2H16.0005C16.2657 2 16.5201 2.10536 16.7076 2.29289C16.8951 2.48043 17.0005 2.73478 17.0005 3V6ZM18.0005 8H6.00049V20H18.0005V8ZM9.00049 11H11.0005V17H9.00049V11ZM13.0005 11H15.0005V17H13.0005V11ZM9.00049 4V6H15.0005V4H9.00049Z" fill="#686868"/>
</g>
<defs>
<clipPath id="clip0_3104_6867">
<rect width="24" height="24" fill="white"/>
</clipPath>
</defs>
</svg>
