<svg width="40" height="25" viewBox="0 0 40 25" fill="none" xmlns="http://www.w3.org/2000/svg">
<g clip-path="url(#clip0_2436_17719)">
<path d="M38.333 24.998H1.667C0.75 24.998 0 24.278 0 23.398V2.59805C0 1.71805 0.75 0.998047 1.667 0.998047H38.333C39.25 0.998047 40 1.71805 40 2.59805V23.398C40 24.278 39.25 24.998 38.333 24.998Z" fill="white"/>
<path d="M38.995 12.748C38.995 12.748 27.522 21.098 6.5 24.498H37.995C38.547 24.498 38.995 24.05 38.995 23.498V12.748Z" fill="#F48024"/>
<path d="M5.332 12.7563C4.994 13.0613 4.556 13.1943 3.862 13.1943H3.572V9.54828H3.862C4.556 9.54828 4.977 9.67228 5.332 9.99428C5.702 10.3243 5.927 10.8383 5.927 11.3663C5.927 11.8963 5.703 12.4263 5.332 12.7563ZM4.077 8.61328H2.5V14.1283H4.07C4.903 14.1283 5.505 13.9313 6.033 13.4913C6.663 12.9713 7.033 12.1863 7.033 11.3753C7.033 9.74728 5.819 8.61328 4.077 8.61328ZM7.53 14.1283H8.604V8.61428H7.53M11.227 10.7303C10.582 10.4903 10.393 10.3333 10.393 10.0353C10.393 9.68828 10.731 9.42528 11.193 9.42528C11.515 9.42528 11.78 9.55728 12.06 9.87128L12.622 9.13428C12.16 8.72928 11.607 8.52228 11.004 8.52228C10.029 8.52228 9.286 9.20028 9.286 10.1023C9.286 10.8623 9.632 11.2523 10.641 11.6153C11.061 11.7633 11.276 11.8623 11.384 11.9293C11.599 12.0693 11.706 12.2693 11.706 12.4993C11.706 12.9473 11.352 13.2793 10.872 13.2793C10.362 13.2793 9.948 13.0213 9.702 12.5433L9.007 13.2133C9.502 13.9393 10.097 14.2633 10.914 14.2633C12.03 14.2633 12.814 13.5183 12.814 12.4513C12.814 11.5753 12.451 11.1783 11.229 10.7313L11.227 10.7303ZM13.15 11.3753C13.15 12.9953 14.42 14.2523 16.057 14.2523C16.519 14.2523 16.915 14.1623 17.404 13.9323V12.6653C16.974 13.0953 16.594 13.2693 16.107 13.2693C15.025 13.2693 14.257 12.4843 14.257 11.3693C14.257 10.3093 15.049 9.47428 16.057 9.47428C16.569 9.47428 16.957 9.65728 17.404 10.0943V8.82828C16.932 8.58828 16.544 8.48828 16.082 8.48828C14.455 8.48828 13.15 9.77128 13.15 11.3753ZM25.922 12.3183L24.454 8.61328H23.28L25.617 14.2693H26.195L28.575 8.61428H27.41M29.06 14.1283H32.106V13.1943H30.133V11.7063H32.033V10.7723H30.133V9.54828H32.106V8.61328H29.06M34.207 11.1523H33.893V9.48228H34.223C34.893 9.48228 35.257 9.76228 35.257 10.3003C35.257 10.8543 34.893 11.1523 34.207 11.1523ZM36.362 10.2423C36.362 9.20928 35.652 8.61428 34.412 8.61428H32.82V14.1283H33.893V11.9133H34.033L35.52 14.1283H36.84L35.107 11.8053C35.917 11.6403 36.362 11.0853 36.362 10.2423Z" fill="#221F20"/>
<path d="M23.6001 11.3749C23.6001 12.9949 22.2901 14.3049 20.6731 14.3049C19.0561 14.3069 17.7451 12.9949 17.7451 11.3749C17.7451 9.75487 19.0551 8.44287 20.6731 8.44287C22.2911 8.44287 23.6011 9.75487 23.6011 11.3749H23.6001Z" fill="#F48024"/>
</g>
<defs>
<clipPath id="clip0_2436_17719">
<rect width="40" height="24" fill="white" transform="translate(0 0.998047)"/>
</clipPath>
</defs>
</svg>
