<svg width="160" height="160" viewBox="0 0 160 160" fill="none" xmlns="http://www.w3.org/2000/svg">
<path d="M153.617 121.494L88.4149 159.142L14.9917 116.65L80.1939 79.0098L153.617 121.494Z" fill="#F5F5F5"/>
<path opacity="0.5" d="M153.617 121.494L88.4149 159.142L14.9917 116.65L80.1939 79.0098L153.617 121.494Z" fill="black" fill-opacity="0.6"/>
<path d="M80.1939 27.9785V79.0106L14.9917 116.65V65.6271L80.1939 27.9785Z" fill="#F5F5F5"/>
<path opacity="0.23" d="M80.1939 27.9785V79.0106L14.9917 116.65V65.6271L80.1939 27.9785Z" fill="black" fill-opacity="0.6"/>
<path d="M88.4149 108.111V159.143L14.9917 116.65V65.627L88.4149 108.111Z" fill="#F5F5F5"/>
<path opacity="0.38" d="M88.4149 108.111V159.143L14.9917 116.65V65.627L88.4149 108.111Z" fill="black" fill-opacity="0.6"/>
<path d="M153.617 70.4625V121.495L80.1938 79.0106V27.9785L153.617 70.4625Z" fill="#F5F5F5"/>
<path opacity="0.4" d="M153.617 70.4625V121.495L80.1938 79.0106V27.9785L153.617 70.4625Z" fill="black" fill-opacity="0.6"/>
<path d="M153.617 121.495V70.4629L88.415 108.112V159.144L153.617 121.495Z" fill="#F5F5F5"/>
<path opacity="0.23" d="M153.617 121.495V70.4629L88.415 108.112V159.144L153.617 121.495Z" fill="black" fill-opacity="0.6"/>
<path d="M80.1938 27.9785L80.2822 -0.273438L153.529 42.2636L153.617 70.4625L80.1938 27.9785Z" fill="#F5F5F5"/>
<path opacity="0.2" d="M80.1938 27.9785L80.2822 -0.273438L153.529 42.2636L153.617 70.4625L80.1938 27.9785Z" fill="black" fill-opacity="0.6"/>
<path d="M88.415 108.112L94.5322 83.3956L159.142 46.0918L153.617 70.463L88.415 108.112Z" fill="#F5F5F5"/>
<path d="M14.9919 65.6267L7.21289 39.9913L72.4151 2.35156L80.1941 27.9781L14.9919 65.6267Z" fill="#F5F5F5"/>
<path opacity="0.1" d="M14.9919 65.6267L7.21289 39.9913L72.4151 2.35156L80.1941 27.9781L14.9919 65.6267Z" fill="black" fill-opacity="0.6"/>
<path d="M14.9919 65.6264L-0.354004 44.4375L73.078 86.9215L88.4151 108.11L14.9919 65.6264Z" fill="#F5F5F5"/>
<path d="M72.942 93.44C79.6691 92.4676 85.8128 88.1361 89.7376 82.6908C91.568 80.1466 92.9162 77.2883 93.7155 74.2577C94.5644 71.4237 94.704 68.4246 94.1222 65.524C92.9111 60.671 88.4205 57.798 83.6735 57.1969C81.2648 56.88 78.8154 57.1189 76.5133 57.8953C74.1263 58.7144 72.0553 60.2599 70.5907 62.3151C69.6723 63.4101 69.0946 64.7499 68.9288 66.1693C68.9147 66.7252 69.1107 67.2661 69.4777 67.6839C69.8447 68.1017 70.3558 68.3658 70.9089 68.4234C72.3323 68.5433 73.7548 68.1823 74.9487 67.398C76.4045 66.5816 77.6867 65.4886 78.7233 64.1803C80.9467 61.4363 82.6105 58.2829 83.6205 54.8986C84.3292 51.9946 84.3292 48.9628 83.6205 46.0588C83.0821 43.021 81.6937 40.1981 79.6161 37.9174C77.2343 35.7514 74.2119 34.4202 71.0061 34.1251C67.8156 33.6868 64.567 33.9892 61.5122 35.0091C60.1704 35.4159 58.9274 36.0961 57.8614 37.0069C57.1012 37.714 56.2349 38.8809 56.5443 40.0301C56.8536 41.1792 58.5332 41.6919 59.6735 41.5417C61.3612 41.2254 62.9072 40.3875 64.0934 39.1461C65.4155 37.8446 66.5384 36.3553 67.426 34.7262C68.0855 33.5554 68.4297 32.2335 68.4249 30.8897C68.31 25.2853 62.1133 21.661 57.2603 20.6356C55.9502 20.3619 54.6083 20.2726 53.2735 20.3704C52.8227 20.3704 53.0967 21.1129 53.4592 21.0864C56.0707 20.9677 58.666 21.554 60.973 22.7837C63.249 23.8298 65.1606 25.532 66.4625 27.6721C67.0427 28.7271 67.3291 29.9186 67.2917 31.122C67.2544 32.3255 66.8948 33.497 66.2503 34.514C65.3848 36.0216 64.3071 37.397 63.0503 38.598C61.9984 39.5527 60.3984 40.6577 58.9222 40.5516C58.6784 40.551 58.4398 40.482 58.2334 40.3522C58.0271 40.2225 57.8614 40.0373 57.7553 39.8179C57.7108 39.5277 57.7347 39.231 57.8253 38.9516C57.9158 38.6723 58.0705 38.418 58.2768 38.2091C59.0574 37.3684 60.0228 36.7208 61.0967 36.3174C63.7487 35.2149 66.6203 34.7429 69.4857 34.9384C72.4386 34.9918 75.3103 35.9142 77.7421 37.5903C79.8604 39.3492 81.3649 41.7359 82.0382 44.4057C82.8911 47.118 83.1562 49.9808 82.8161 52.8035C82.2911 55.6439 81.1998 58.3496 79.6072 60.7593C77.9719 63.4643 75.9211 66.0632 72.8448 67.124C72.0846 67.398 70.4934 67.7958 70.1929 66.6908C69.8923 65.5858 70.7586 64.2245 71.3155 63.3671C72.547 61.4289 74.3424 59.9142 76.4603 59.0267C78.504 58.2076 80.7101 57.8747 82.9045 58.0544C87.068 58.3638 91.2934 60.5383 92.7432 64.6754C93.4704 67.1478 93.5495 69.7657 92.973 72.2776C92.453 75.0309 91.4632 77.6742 90.047 80.0919C87.0008 85.229 82.3874 89.2537 76.8846 91.5748C75.5763 92.1406 74.2327 92.6179 72.8625 93.0599C72.7211 93.1129 72.7829 93.4665 72.942 93.44Z" fill="#FAFAFA"/>
<path opacity="0.45" d="M14.9919 65.6264L-0.354004 44.4375L73.078 86.9215L88.4151 108.11L14.9919 65.6264Z" fill="black" fill-opacity="0.6"/>
<g opacity="0.7">
<path opacity="0.7" d="M107.615 143.965C107.509 143.965 107.407 143.924 107.331 143.849C107.255 143.775 107.211 143.674 107.208 143.568V134.586C107.211 134.479 107.254 134.377 107.33 134.301C107.406 134.225 107.508 134.182 107.615 134.18C107.721 134.182 107.823 134.226 107.897 134.302C107.971 134.378 108.013 134.48 108.013 134.586V143.568C108.013 143.673 107.971 143.774 107.896 143.849C107.822 143.923 107.721 143.965 107.615 143.965Z" fill="#F5F5F5"/>
<path opacity="0.7" d="M106.44 137.697C106.387 137.705 106.333 137.705 106.28 137.697C106.184 137.652 106.108 137.572 106.069 137.474C106.029 137.375 106.029 137.265 106.068 137.166L107.5 133.869L109.092 135.708C109.148 135.79 109.173 135.891 109.161 135.99C109.148 136.089 109.099 136.18 109.024 136.246C108.948 136.312 108.851 136.347 108.751 136.346C108.651 136.344 108.555 136.306 108.482 136.238L107.73 135.354L106.846 137.476C106.808 137.549 106.749 137.609 106.677 137.648C106.604 137.687 106.522 137.704 106.44 137.697Z" fill="#F5F5F5"/>
<path opacity="0.7" d="M111.319 141.853C111.213 141.851 111.112 141.807 111.037 141.731C110.963 141.655 110.921 141.553 110.921 141.446V132.474C110.921 132.368 110.963 132.267 111.038 132.193C111.113 132.118 111.214 132.076 111.319 132.076C111.425 132.076 111.526 132.118 111.6 132.193C111.675 132.267 111.717 132.368 111.717 132.474V141.438C111.718 141.491 111.709 141.544 111.689 141.594C111.67 141.644 111.641 141.689 111.604 141.728C111.567 141.766 111.523 141.797 111.474 141.819C111.425 141.84 111.373 141.852 111.319 141.853Z" fill="#F5F5F5"/>
<path opacity="0.7" d="M110.144 135.585C110.091 135.593 110.037 135.593 109.984 135.585C109.936 135.564 109.892 135.533 109.856 135.495C109.819 135.457 109.79 135.412 109.771 135.362C109.753 135.313 109.744 135.26 109.745 135.207C109.747 135.154 109.759 135.102 109.781 135.054L111.204 131.713L112.796 133.543C112.869 133.619 112.91 133.72 112.91 133.826C112.91 133.931 112.869 134.033 112.796 134.108C112.759 134.146 112.714 134.176 112.666 134.196C112.617 134.216 112.565 134.227 112.513 134.227C112.46 134.227 112.408 134.216 112.359 134.196C112.311 134.176 112.267 134.146 112.23 134.108L111.478 133.224L110.594 135.346C110.558 135.431 110.493 135.501 110.411 135.545C110.329 135.588 110.235 135.602 110.144 135.585Z" fill="#F5F5F5"/>
</g>
<g opacity="0.7">
<path opacity="0.7" d="M96.9275 150.057C96.7765 150.059 96.6273 150.022 96.4944 149.951C96.3345 149.848 96.2051 149.705 96.1196 149.535C96.0341 149.366 95.9956 149.177 96.0082 148.987V147.882C96.0105 147.776 96.0544 147.675 96.1304 147.6C96.2064 147.526 96.3085 147.484 96.4148 147.484C96.5203 147.484 96.6215 147.526 96.6961 147.601C96.7707 147.676 96.8126 147.777 96.8126 147.882V148.987C96.8126 149.146 96.8126 149.235 96.8922 149.252C96.9717 149.27 97.0159 149.252 97.1485 149.182C97.3973 148.952 97.5933 148.671 97.723 148.358C97.8528 148.045 97.9131 147.708 97.8999 147.369V142.773C97.8999 142.667 97.9418 142.566 98.0164 142.492C98.091 142.417 98.1922 142.375 98.2977 142.375C98.4032 142.375 98.5044 142.417 98.579 142.492C98.6536 142.566 98.6955 142.667 98.6955 142.773V147.369C98.7152 147.847 98.6223 148.322 98.4242 148.757C98.2261 149.191 97.9284 149.573 97.5552 149.871C97.3662 149.988 97.1495 150.052 96.9275 150.057Z" fill="#F5F5F5"/>
<path opacity="0.7" d="M92.7109 146.352V145.663C92.816 143.892 93.3335 142.171 94.2222 140.636C95.1109 139.101 96.3461 137.795 97.8292 136.823C99.2789 135.992 100.658 135.868 101.719 136.487C102.284 136.875 102.736 137.408 103.025 138.03C103.314 138.652 103.431 139.34 103.363 140.023V140.253L92.7109 146.352ZM100.234 136.858C99.5258 136.891 98.8381 137.104 98.2358 137.477C96.9649 138.313 95.8888 139.413 95.0804 140.702C94.272 141.991 93.7503 143.438 93.5507 144.947L102.541 139.749C102.579 139.237 102.485 138.724 102.266 138.259C102.048 137.794 101.713 137.394 101.294 137.097C100.968 136.926 100.602 136.844 100.234 136.858Z" fill="#F5F5F5"/>
</g>
<path opacity="0.7" d="M-0.354004 44.4375L73.078 86.9215L88.4151 108.11L72.2648 87.6729L-0.354004 44.4375Z" fill="#F5F5F5"/>
<path opacity="0.7" d="M153.617 70.4629L88.415 108.112V159.144L89.6349 109.137L153.617 70.4629Z" fill="#F5F5F5"/>
<path opacity="0.3" d="M88.415 108.112L94.5322 83.3956L159.142 46.0918L153.617 70.463L88.415 108.112Z" fill="black" fill-opacity="0.6"/>
</svg>
