<svg width="160" height="194" viewBox="0 0 160 194" fill="none" xmlns="http://www.w3.org/2000/svg">
<g clip-path="url(#clip0_3373_12752)">
<path d="M153.617 121.494L88.4149 159.143L14.9917 116.65L80.1939 79.0103L153.617 121.494Z" fill="#F5F5F5"/>
<path opacity="0.5" d="M153.617 121.494L88.4149 159.143L14.9917 116.65L80.1939 79.0103L153.617 121.494Z" fill="black" fill-opacity="0.6"/>
<path d="M80.1939 27.9785V79.0106L14.9917 116.65V65.6271L80.1939 27.9785Z" fill="#F5F5F5"/>
<path opacity="0.23" d="M80.1939 27.9785V79.0106L14.9917 116.65V65.6271L80.1939 27.9785Z" fill="black" fill-opacity="0.6"/>
<path d="M88.4149 108.111V159.143L14.9917 116.65V65.627L88.4149 108.111Z" fill="#F5F5F5"/>
<path opacity="0.38" d="M88.4149 108.111V159.143L14.9917 116.65V65.627L88.4149 108.111Z" fill="black" fill-opacity="0.6"/>
<path d="M153.618 70.4625V121.495L80.1943 79.0106V27.9785L153.618 70.4625Z" fill="#F5F5F5"/>
<path opacity="0.4" d="M153.618 70.4625V121.495L80.1943 79.0106V27.9785L153.618 70.4625Z" fill="black" fill-opacity="0.6"/>
<path d="M153.617 121.494V70.4624L88.415 108.111V159.143L153.617 121.494Z" fill="#F5F5F5"/>
<path opacity="0.23" d="M153.617 121.494V70.4624L88.415 108.111V159.143L153.617 121.494Z" fill="black" fill-opacity="0.6"/>
<path d="M80.1943 27.9785L80.2827 -0.273438L153.529 42.2636L153.618 70.4625L80.1943 27.9785Z" fill="#F5F5F5"/>
<path opacity="0.2" d="M80.1943 27.9785L80.2827 -0.273438L153.529 42.2636L153.618 70.4625L80.1943 27.9785Z" fill="black" fill-opacity="0.6"/>
<path d="M88.415 108.111L94.5322 83.3952L159.142 46.0913L153.617 70.4626L88.415 108.111Z" fill="#F5F5F5"/>
<path d="M14.9919 65.6272L7.21289 39.9918L72.4151 2.35205L80.1941 27.9786L14.9919 65.6272Z" fill="#F5F5F5"/>
<path opacity="0.1" d="M14.9919 65.6272L7.21289 39.9918L72.4151 2.35205L80.1941 27.9786L14.9919 65.6272Z" fill="black" fill-opacity="0.6"/>
<path d="M14.9919 65.6269L-0.354004 44.438L73.078 86.922L88.4151 108.111L14.9919 65.6269Z" fill="#F5F5F5"/>
<path d="M72.942 93.4395C79.6691 92.4671 85.8128 88.1356 89.7376 82.6903C91.568 80.1461 92.9162 77.2878 93.7155 74.2572C94.5644 71.4232 94.704 68.4241 94.1222 65.5235C92.9111 60.6705 88.4205 57.7975 83.6735 57.1964C81.2648 56.8795 78.8154 57.1184 76.5133 57.8948C74.1263 58.714 72.0553 60.2594 70.5907 62.3147C69.6723 63.4096 69.0946 64.7494 68.9288 66.1688C68.9147 66.7247 69.1107 67.2656 69.4777 67.6834C69.8447 68.1012 70.3558 68.3653 70.9089 68.423C72.3323 68.5429 73.7548 68.1818 74.9487 67.3975C76.4045 66.5811 77.6867 65.4881 78.7233 64.1798C80.9467 61.4358 82.6105 58.2824 83.6205 54.8981C84.3292 51.9941 84.3292 48.9623 83.6205 46.0583C83.0821 43.0205 81.6937 40.1976 79.6161 37.9169C77.2343 35.7509 74.2119 34.4197 71.0061 34.1246C67.8156 33.6863 64.567 33.9887 61.5122 35.0086C60.1704 35.4154 58.9274 36.0956 57.8614 37.0064C57.1012 37.7136 56.2349 38.8804 56.5443 40.0296C56.8536 41.1787 58.5332 41.6915 59.6735 41.5412C61.3612 41.2249 62.9072 40.387 64.0934 39.1456C65.4155 37.8441 66.5384 36.3548 67.426 34.7257C68.0855 33.5549 68.4297 32.233 68.4249 30.8892C68.31 25.2848 62.1133 21.6605 57.2603 20.6351C55.9502 20.3614 54.6083 20.2722 53.2735 20.3699C52.8227 20.3699 53.0967 21.1125 53.4592 21.0859C56.0707 20.9673 58.666 21.5535 60.973 22.7832C63.249 23.8293 65.1606 25.5315 66.4625 27.6716C67.0427 28.7266 67.3291 29.9181 67.2917 31.1216C67.2544 32.325 66.8948 33.4965 66.2503 34.5136C65.3848 36.0211 64.3071 37.3965 63.0503 38.5975C61.9984 39.5522 60.3984 40.6572 58.9222 40.5511C58.6784 40.5506 58.4398 40.4815 58.2334 40.3517C58.0271 40.222 57.8614 40.0368 57.7553 39.8174C57.7108 39.5272 57.7347 39.2305 57.8253 38.9511C57.9158 38.6718 58.0705 38.4175 58.2768 38.2086C59.0574 37.3679 60.0228 36.7203 61.0967 36.3169C63.7487 35.2145 66.6203 34.7424 69.4857 34.9379C72.4386 34.9913 75.3103 35.9137 77.7421 37.5898C79.8604 39.3487 81.3649 41.7354 82.0382 44.4053C82.8911 47.1175 83.1562 49.9803 82.8161 52.8031C82.2911 55.6434 81.1998 58.3491 79.6072 60.7589C77.9719 63.4638 75.9211 66.0627 72.8448 67.1235C72.0846 67.3975 70.4934 67.7953 70.1929 66.6903C69.8923 65.5854 70.7586 64.2241 71.3155 63.3666C72.547 61.4284 74.3424 59.9138 76.4603 59.0263C78.504 58.2071 80.7101 57.8742 82.9045 58.0539C87.068 58.3633 91.2934 60.5378 92.7432 64.6749C93.4704 67.1473 93.5495 69.7652 92.973 72.2771C92.453 75.0304 91.4632 77.6737 90.047 80.0914C87.0008 85.2285 82.3874 89.2532 76.8846 91.5743C75.5763 92.1401 74.2327 92.6174 72.8625 93.0594C72.7211 93.1124 72.7829 93.466 72.942 93.4395Z" fill="#FAFAFA"/>
<path opacity="0.45" d="M14.9919 65.6269L-0.354004 44.438L73.078 86.922L88.4151 108.111L14.9919 65.6269Z" fill="black" fill-opacity="0.6"/>
<g opacity="0.7">
<path opacity="0.7" d="M107.616 143.965C107.509 143.965 107.407 143.924 107.331 143.849C107.255 143.775 107.211 143.674 107.209 143.568V134.586C107.211 134.479 107.255 134.377 107.331 134.301C107.406 134.225 107.508 134.182 107.616 134.18C107.722 134.182 107.823 134.226 107.897 134.302C107.972 134.378 108.013 134.48 108.013 134.586V143.568C108.013 143.673 107.971 143.774 107.897 143.849C107.822 143.923 107.721 143.965 107.616 143.965Z" fill="#F5F5F5"/>
<path opacity="0.7" d="M106.44 137.698C106.387 137.706 106.333 137.706 106.28 137.698C106.184 137.653 106.108 137.573 106.069 137.475C106.029 137.376 106.029 137.266 106.068 137.167L107.5 133.87L109.092 135.709C109.148 135.791 109.173 135.891 109.161 135.991C109.148 136.09 109.099 136.181 109.024 136.247C108.948 136.313 108.851 136.348 108.751 136.347C108.651 136.345 108.555 136.307 108.482 136.239L107.73 135.355L106.846 137.477C106.808 137.55 106.749 137.61 106.677 137.649C106.604 137.688 106.522 137.705 106.44 137.698Z" fill="#F5F5F5"/>
<path opacity="0.7" d="M111.319 141.852C111.212 141.85 111.111 141.806 111.037 141.73C110.963 141.654 110.921 141.552 110.921 141.446V132.473C110.921 132.368 110.963 132.267 111.037 132.192C111.112 132.118 111.213 132.076 111.319 132.076C111.424 132.076 111.525 132.118 111.6 132.192C111.675 132.267 111.716 132.368 111.716 132.473V141.437C111.718 141.49 111.708 141.544 111.689 141.593C111.67 141.643 111.641 141.689 111.604 141.727C111.567 141.766 111.523 141.797 111.474 141.818C111.425 141.84 111.372 141.851 111.319 141.852Z" fill="#F5F5F5"/>
<path opacity="0.7" d="M110.144 135.585C110.091 135.593 110.037 135.593 109.984 135.585C109.936 135.564 109.892 135.534 109.856 135.495C109.819 135.457 109.79 135.412 109.771 135.363C109.753 135.313 109.744 135.261 109.745 135.208C109.747 135.155 109.759 135.103 109.781 135.055L111.204 131.713L112.796 133.543C112.869 133.619 112.91 133.721 112.91 133.826C112.91 133.932 112.869 134.033 112.796 134.109C112.759 134.146 112.714 134.176 112.666 134.196C112.617 134.217 112.565 134.227 112.513 134.227C112.46 134.227 112.408 134.217 112.359 134.196C112.311 134.176 112.267 134.146 112.23 134.109L111.478 133.225L110.594 135.347C110.558 135.432 110.493 135.502 110.411 135.545C110.329 135.589 110.235 135.603 110.144 135.585Z" fill="#F5F5F5"/>
</g>
<g opacity="0.7">
<path opacity="0.7" d="M96.9275 150.056C96.7765 150.058 96.6273 150.022 96.4944 149.95C96.3345 149.847 96.2051 149.704 96.1196 149.534C96.0341 149.365 95.9956 149.176 96.0082 148.986V147.881C96.0105 147.775 96.0544 147.674 96.1304 147.599C96.2064 147.525 96.3085 147.483 96.4148 147.483C96.5203 147.483 96.6215 147.525 96.6961 147.6C96.7707 147.675 96.8126 147.776 96.8126 147.881V148.986C96.8126 149.145 96.8126 149.234 96.8922 149.251C96.9717 149.269 97.0159 149.251 97.1485 149.181C97.3973 148.951 97.5933 148.67 97.723 148.357C97.8528 148.044 97.9131 147.707 97.8999 147.368V142.772C97.8999 142.666 97.9418 142.565 98.0164 142.491C98.091 142.416 98.1922 142.374 98.2977 142.374C98.4032 142.374 98.5044 142.416 98.579 142.491C98.6536 142.565 98.6955 142.666 98.6955 142.772V147.368C98.7152 147.846 98.6223 148.321 98.4242 148.756C98.2261 149.19 97.9284 149.572 97.5552 149.87C97.3662 149.987 97.1495 150.051 96.9275 150.056Z" fill="#F5F5F5"/>
<path opacity="0.7" d="M92.7109 146.352V145.663C92.816 143.892 93.3335 142.171 94.2222 140.636C95.1109 139.101 96.3461 137.795 97.8292 136.823C99.2789 135.992 100.658 135.868 101.719 136.487C102.284 136.875 102.736 137.408 103.025 138.03C103.314 138.652 103.431 139.34 103.363 140.023V140.253L92.7109 146.352ZM100.234 136.858C99.5258 136.891 98.8381 137.104 98.2358 137.477C96.9649 138.313 95.8888 139.413 95.0804 140.702C94.272 141.991 93.7503 143.438 93.5507 144.947L102.541 139.749C102.579 139.237 102.485 138.724 102.266 138.259C102.048 137.794 101.713 137.394 101.294 137.097C100.968 136.926 100.602 136.844 100.234 136.858Z" fill="#F5F5F5"/>
</g>
<path opacity="0.7" d="M-0.354004 44.438L73.078 86.922L88.4151 108.111L72.2648 87.6733L-0.354004 44.438Z" fill="#F5F5F5"/>
<path opacity="0.7" d="M153.617 70.4624L88.415 108.111V159.143L89.6349 109.136L153.617 70.4624Z" fill="#F5F5F5"/>
<path opacity="0.3" d="M88.415 108.111L94.5322 83.3952L159.142 46.0913L153.617 70.4626L88.415 108.111Z" fill="black" fill-opacity="0.6"/>
</g>
<path d="M11.4091 177.364L13.0227 177.364L16.25 182.795L16.3864 182.795L19.6136 177.364L21.2273 177.364L17.0227 184.205L17.0227 189L15.6136 189L15.6136 184.205L11.4091 177.364ZM25.179 189.182C24.3911 189.182 23.6998 188.994 23.1051 188.619C22.5142 188.244 22.0521 187.72 21.7187 187.045C21.3892 186.371 21.2244 185.583 21.2244 184.682C21.2244 183.773 21.3892 182.979 21.7187 182.301C22.0521 181.623 22.5142 181.097 23.1051 180.722C23.6998 180.347 24.3911 180.159 25.179 180.159C25.9669 180.159 26.6562 180.347 27.2472 180.722C27.8419 181.097 28.304 181.623 28.6335 182.301C28.9669 182.979 29.1335 183.773 29.1335 184.682C29.1335 185.583 28.9669 186.371 28.6335 187.045C28.304 187.72 27.8419 188.244 27.2472 188.619C26.6562 188.994 25.9669 189.182 25.179 189.182ZM25.179 187.977C25.7775 187.977 26.2699 187.824 26.6562 187.517C27.0426 187.21 27.3286 186.807 27.5142 186.307C27.6998 185.807 27.7926 185.265 27.7926 184.682C27.7926 184.098 27.6998 183.555 27.5142 183.051C27.3286 182.547 27.0426 182.14 26.6562 181.83C26.2699 181.519 25.7775 181.364 25.179 181.364C24.5805 181.364 24.0881 181.519 23.7017 181.83C23.3153 182.14 23.0294 182.547 22.8437 183.051C22.6581 183.555 22.5653 184.098 22.5653 184.682C22.5653 185.265 22.6581 185.807 22.8437 186.307C23.0294 186.807 23.3153 187.21 23.7017 187.517C24.0881 187.824 24.5805 187.977 25.179 187.977ZM36.6804 185.432L36.6804 180.273L38.0213 180.273L38.0213 189L36.6804 189L36.6804 187.523L36.5895 187.523C36.3849 187.966 36.0668 188.343 35.6349 188.653C35.2031 188.96 34.6577 189.114 33.9986 189.114C33.4531 189.114 32.9683 188.994 32.544 188.756C32.1198 188.513 31.7865 188.15 31.544 187.665C31.3016 187.176 31.1804 186.561 31.1804 185.818L31.1804 180.273L32.5213 180.273L32.5213 185.727C32.5213 186.364 32.6993 186.871 33.0554 187.25C33.4152 187.629 33.8736 187.818 34.4304 187.818C34.7637 187.818 35.1027 187.733 35.4474 187.563C35.7959 187.392 36.0876 187.131 36.3224 186.778C36.5611 186.426 36.6804 185.977 36.6804 185.432ZM40.4773 189L40.4773 180.273L41.7727 180.273L41.7727 181.591L41.8636 181.591C42.0227 181.159 42.3106 180.809 42.7273 180.54C43.1439 180.271 43.6136 180.136 44.1364 180.136C44.2348 180.136 44.358 180.138 44.5057 180.142C44.6534 180.146 44.7652 180.152 44.8409 180.159L44.8409 181.523C44.7955 181.511 44.6913 181.494 44.5284 181.472C44.3693 181.445 44.2008 181.432 44.0227 181.432C43.5985 181.432 43.2197 181.521 42.8864 181.699C42.5568 181.873 42.2955 182.116 42.1023 182.426C41.9129 182.733 41.8182 183.083 41.8182 183.477L41.8182 189L40.4773 189ZM54.4758 189.182C53.6577 189.182 52.9531 188.989 52.3622 188.602C51.7713 188.216 51.3168 187.684 50.9986 187.006C50.6804 186.328 50.5213 185.553 50.5213 184.682C50.5213 183.795 50.6842 183.013 51.0099 182.335C51.3395 181.653 51.7978 181.121 52.3849 180.739C52.9759 180.352 53.6652 180.159 54.4531 180.159C55.0668 180.159 55.6198 180.273 56.1122 180.5C56.6046 180.727 57.008 181.045 57.3224 181.455C57.6368 181.864 57.8319 182.341 57.9077 182.886L56.5668 182.886C56.4645 182.489 56.2372 182.136 55.8849 181.83C55.5365 181.519 55.0668 181.364 54.4759 181.364C53.9531 181.364 53.4948 181.5 53.1009 181.773C52.7107 182.042 52.4058 182.422 52.1861 182.915C51.9702 183.403 51.8622 183.977 51.8622 184.636C51.8622 185.311 51.9683 185.898 52.1804 186.398C52.3963 186.898 52.6993 187.286 53.0895 187.563C53.4834 187.839 53.9455 187.977 54.4758 187.977C54.8243 187.977 55.1406 187.917 55.4247 187.795C55.7088 187.674 55.9493 187.5 56.1463 187.273C56.3433 187.045 56.4834 186.773 56.5668 186.455L57.9077 186.455C57.8319 186.97 57.6444 187.434 57.3452 187.847C57.0497 188.256 56.6577 188.581 56.169 188.824C55.6842 189.063 55.1198 189.182 54.4758 189.182ZM62.4361 189.205C61.883 189.205 61.3812 189.1 60.9304 188.892C60.4796 188.68 60.1217 188.375 59.8565 187.977C59.5914 187.576 59.4588 187.091 59.4588 186.523C59.4588 186.023 59.5573 185.617 59.7543 185.307C59.9512 184.992 60.2145 184.746 60.544 184.568C60.8736 184.39 61.2372 184.258 61.6349 184.17C62.0365 184.08 62.4399 184.008 62.8452 183.955C63.3755 183.886 63.8054 183.835 64.1349 183.801C64.4683 183.763 64.7107 183.701 64.8622 183.614C65.0175 183.527 65.0952 183.375 65.0952 183.159L65.0952 183.114C65.0952 182.553 64.9418 182.117 64.6349 181.807C64.3319 181.496 63.8717 181.341 63.2543 181.341C62.6141 181.341 62.1122 181.481 61.7486 181.761C61.3849 182.042 61.1293 182.341 60.9815 182.659L59.7088 182.205C59.9361 181.674 60.2391 181.261 60.6179 180.966C61.0005 180.667 61.4171 180.458 61.8679 180.341C62.3224 180.22 62.7694 180.159 63.2088 180.159C63.4891 180.159 63.8111 180.193 64.1747 180.261C64.5421 180.326 64.8963 180.46 65.2372 180.665C65.5819 180.869 65.8679 181.178 66.0952 181.591C66.3224 182.004 66.4361 182.557 66.4361 183.25L66.4361 189L65.0952 189L65.0952 187.818L65.027 187.818C64.9361 188.008 64.7846 188.21 64.5724 188.426C64.3603 188.642 64.0781 188.826 63.7258 188.977C63.3736 189.129 62.9437 189.205 62.4361 189.205ZM62.6406 188C63.1709 188 63.6179 187.896 63.9815 187.688C64.349 187.479 64.6255 187.21 64.8111 186.881C65.0005 186.551 65.0952 186.205 65.0952 185.841L65.0952 184.614C65.0384 184.682 64.9134 184.744 64.7202 184.801C64.5308 184.854 64.3111 184.902 64.0611 184.943C63.8149 184.981 63.5743 185.015 63.3395 185.045C63.1084 185.072 62.9209 185.095 62.777 185.114C62.4285 185.159 62.1027 185.233 61.7997 185.335C61.5005 185.434 61.258 185.583 61.0724 185.784C60.8906 185.981 60.7997 186.25 60.7997 186.591C60.7997 187.057 60.9721 187.409 61.3168 187.648C61.6652 187.883 62.1065 188 62.6406 188ZM68.8835 189L68.8835 180.273L70.179 180.273L70.179 181.591L70.2699 181.591C70.429 181.159 70.7169 180.809 71.1335 180.54C71.5502 180.271 72.0199 180.136 72.5426 180.136C72.6411 180.136 72.7642 180.138 72.9119 180.142C73.0597 180.146 73.1714 180.152 73.2472 180.159L73.2472 181.523C73.2017 181.511 73.0975 181.494 72.9347 181.472C72.7756 181.445 72.607 181.432 72.429 181.432C72.0047 181.432 71.6259 181.521 71.2926 181.699C70.9631 181.873 70.7017 182.116 70.5085 182.426C70.3191 182.733 70.2244 183.083 70.2244 183.477L70.2244 189L68.8835 189ZM79.179 180.273L79.179 181.409L74.6562 181.409L74.6562 180.273L79.179 180.273ZM75.9744 178.182L77.3153 178.182L77.3153 186.5C77.3153 186.879 77.3703 187.163 77.4801 187.352C77.5937 187.538 77.7377 187.663 77.9119 187.727C78.09 187.788 78.2775 187.818 78.4744 187.818C78.6222 187.818 78.7434 187.811 78.8381 187.795C78.9328 187.777 79.0085 187.761 79.0653 187.75L79.3381 188.955C79.2472 188.989 79.1203 189.023 78.9574 189.057C78.7945 189.095 78.5881 189.114 78.3381 189.114C77.9593 189.114 77.5881 189.032 77.2244 188.869C76.8646 188.706 76.5653 188.458 76.3267 188.125C76.0919 187.792 75.9744 187.371 75.9744 186.864L75.9744 178.182ZM85.696 189L85.696 180.273L87.0369 180.273L87.0369 189L85.696 189ZM86.3778 178.818C86.1165 178.818 85.8911 178.729 85.7017 178.551C85.5161 178.373 85.4233 178.159 85.4233 177.909C85.4233 177.659 85.5161 177.445 85.7017 177.267C85.8911 177.089 86.1165 177 86.3778 177C86.6392 177 86.8627 177.089 87.0483 177.267C87.2377 177.445 87.3324 177.659 87.3324 177.909C87.3324 178.159 87.2377 178.373 87.0483 178.551C86.8627 178.729 86.6392 178.818 86.3778 178.818ZM95.6747 182.227L94.4702 182.568C94.3944 182.367 94.2827 182.172 94.1349 181.983C93.991 181.79 93.794 181.631 93.544 181.506C93.294 181.381 92.974 181.318 92.5838 181.318C92.0497 181.318 91.6046 181.441 91.2486 181.688C90.8963 181.93 90.7202 182.239 90.7202 182.614C90.7202 182.947 90.8414 183.21 91.0838 183.403C91.3262 183.597 91.705 183.758 92.2202 183.886L93.5156 184.205C94.2959 184.394 94.8774 184.684 95.2599 185.074C95.6425 185.46 95.8338 185.958 95.8338 186.568C95.8338 187.068 95.6899 187.515 95.402 187.909C95.1179 188.303 94.7202 188.614 94.2088 188.841C93.6974 189.068 93.1027 189.182 92.4247 189.182C91.5346 189.182 90.7978 188.989 90.2145 188.602C89.6312 188.216 89.2618 187.652 89.1065 186.909L90.3793 186.591C90.5005 187.061 90.7296 187.413 91.0668 187.648C91.4077 187.883 91.8527 188 92.402 188C93.027 188 93.5232 187.867 93.8906 187.602C94.2618 187.333 94.4474 187.011 94.4474 186.636C94.4474 186.333 94.3414 186.08 94.1293 185.875C93.9171 185.667 93.5914 185.511 93.152 185.409L91.6974 185.068C90.8982 184.879 90.3111 184.585 89.9361 184.188C89.5649 183.786 89.3793 183.284 89.3793 182.682C89.3793 182.189 89.5175 181.754 89.794 181.375C90.0743 180.996 90.455 180.699 90.9361 180.483C91.4209 180.267 91.9702 180.159 92.5838 180.159C93.4474 180.159 94.1255 180.348 94.6179 180.727C95.1141 181.106 95.4664 181.606 95.6747 182.227ZM106.011 189.182C105.17 189.182 104.445 188.996 103.835 188.625C103.229 188.25 102.761 187.727 102.432 187.057C102.106 186.383 101.943 185.599 101.943 184.705C101.943 183.811 102.106 183.023 102.432 182.341C102.761 181.655 103.22 181.121 103.807 180.739C104.398 180.352 105.087 180.159 105.875 180.159C106.33 180.159 106.778 180.235 107.222 180.386C107.665 180.538 108.068 180.784 108.432 181.125C108.795 181.462 109.085 181.909 109.301 182.466C109.517 183.023 109.625 183.708 109.625 184.523L109.625 185.091L102.898 185.091L102.898 183.932L108.261 183.932C108.261 183.439 108.163 183 107.966 182.614C107.773 182.227 107.496 181.922 107.136 181.699C106.78 181.475 106.36 181.364 105.875 181.364C105.341 181.364 104.879 181.496 104.489 181.761C104.102 182.023 103.805 182.364 103.597 182.784C103.388 183.205 103.284 183.655 103.284 184.136L103.284 184.909C103.284 185.568 103.398 186.127 103.625 186.585C103.856 187.04 104.176 187.386 104.585 187.625C104.994 187.86 105.47 187.977 106.011 187.977C106.364 187.977 106.682 187.928 106.966 187.83C107.254 187.727 107.502 187.576 107.71 187.375C107.919 187.17 108.08 186.917 108.193 186.614L109.489 186.977C109.352 187.417 109.123 187.803 108.801 188.136C108.479 188.466 108.081 188.724 107.608 188.909C107.134 189.091 106.602 189.182 106.011 189.182ZM111.665 189L111.665 180.273L112.96 180.273L112.96 181.636L113.074 181.636C113.256 181.17 113.549 180.809 113.955 180.551C114.36 180.29 114.847 180.159 115.415 180.159C115.991 180.159 116.47 180.29 116.852 180.551C117.239 180.809 117.54 181.17 117.756 181.636L117.847 181.636C118.07 181.186 118.405 180.828 118.852 180.563C119.299 180.294 119.835 180.159 120.46 180.159C121.241 180.159 121.879 180.403 122.375 180.892C122.871 181.377 123.119 182.133 123.119 183.159L123.119 189L121.778 189L121.778 183.159C121.778 182.515 121.602 182.055 121.25 181.778C120.898 181.502 120.483 181.364 120.006 181.364C119.392 181.364 118.917 181.549 118.58 181.92C118.242 182.288 118.074 182.754 118.074 183.318L118.074 189L116.71 189L116.71 183.023C116.71 182.527 116.549 182.127 116.227 181.824C115.905 181.517 115.491 181.364 114.983 181.364C114.634 181.364 114.309 181.456 114.006 181.642C113.706 181.828 113.464 182.085 113.278 182.415C113.097 182.741 113.006 183.117 113.006 183.545L113.006 189L111.665 189ZM125.571 192.273L125.571 180.273L126.866 180.273L126.866 181.659L127.026 181.659C127.124 181.508 127.26 181.314 127.435 181.08C127.613 180.841 127.866 180.629 128.196 180.443C128.529 180.254 128.98 180.159 129.548 180.159C130.283 180.159 130.931 180.343 131.491 180.71C132.052 181.078 132.49 181.599 132.804 182.273C133.118 182.947 133.276 183.742 133.276 184.659C133.276 185.583 133.118 186.384 132.804 187.063C132.49 187.737 132.054 188.259 131.497 188.631C130.94 188.998 130.298 189.182 129.571 189.182C129.01 189.182 128.562 189.089 128.224 188.903C127.887 188.714 127.628 188.5 127.446 188.261C127.264 188.019 127.124 187.818 127.026 187.659L126.912 187.659L126.912 192.273L125.571 192.273ZM126.889 184.636C126.889 185.295 126.986 185.877 127.179 186.381C127.372 186.881 127.654 187.273 128.026 187.557C128.397 187.837 128.851 187.977 129.389 187.977C129.95 187.977 130.418 187.83 130.793 187.534C131.171 187.235 131.455 186.833 131.645 186.33C131.838 185.822 131.935 185.258 131.935 184.636C131.935 184.023 131.84 183.47 131.651 182.977C131.465 182.481 131.183 182.089 130.804 181.801C130.429 181.509 129.957 181.364 129.389 181.364C128.844 181.364 128.385 181.502 128.014 181.778C127.643 182.051 127.363 182.434 127.173 182.926C126.984 183.415 126.889 183.985 126.889 184.636ZM139.116 180.273L139.116 181.409L134.594 181.409L134.594 180.273L139.116 180.273ZM135.912 178.182L137.253 178.182L137.253 186.5C137.253 186.879 137.308 187.163 137.418 187.352C137.531 187.538 137.675 187.663 137.849 187.727C138.027 187.788 138.215 187.818 138.412 187.818C138.56 187.818 138.681 187.811 138.776 187.795C138.87 187.777 138.946 187.761 139.003 187.75L139.276 188.955C139.185 188.989 139.058 189.023 138.895 189.057C138.732 189.095 138.526 189.114 138.276 189.114C137.897 189.114 137.526 189.032 137.162 188.869C136.802 188.706 136.503 188.458 136.264 188.125C136.029 187.792 135.912 187.371 135.912 186.864L135.912 178.182ZM141.997 192.273C141.77 192.273 141.567 192.254 141.389 192.216C141.211 192.182 141.088 192.148 141.02 192.114L141.361 190.932C141.687 191.015 141.974 191.045 142.224 191.023C142.474 191 142.696 190.888 142.889 190.688C143.086 190.491 143.266 190.17 143.429 189.727L143.679 189.045L140.452 180.273L141.906 180.273L144.315 187.227L144.406 187.227L146.815 180.273L148.27 180.273L144.565 190.273C144.399 190.724 144.192 191.097 143.946 191.392C143.7 191.691 143.414 191.913 143.088 192.057C142.766 192.201 142.402 192.273 141.997 192.273Z" fill="#686868"/>
<defs>
<clipPath id="clip0_3373_12752">
<rect width="160" height="160" fill="white"/>
</clipPath>
</defs>
</svg>
