<svg width="23" height="22" viewBox="0 0 23 22" fill="none" xmlns="http://www.w3.org/2000/svg">
<path d="M5.50743 4.06327C7.17077 2.62196 9.29875 1.82995 11.4997 1.83302C16.5624 1.83302 20.6663 5.93693 20.6663 10.9997C20.6663 12.9577 20.0522 14.7727 19.0072 16.2614L16.083 10.9997H18.833C18.8331 9.56201 18.4107 8.156 17.6181 6.9565C16.8256 5.757 15.6979 4.81691 14.3754 4.25313C13.0529 3.68935 11.5938 3.52674 10.1796 3.78553C8.76544 4.04432 7.45851 4.71309 6.42134 5.70868L5.50743 4.06327ZM17.4919 17.9361C15.8286 19.3774 13.7006 20.1694 11.4997 20.1664C6.43693 20.1664 2.33301 16.0624 2.33301 10.9997C2.33301 9.04168 2.94717 7.22668 3.99217 5.73802L6.91634 10.9997H4.16634C4.16622 12.4374 4.5887 13.8434 5.38123 15.0429C6.17377 16.2424 7.3014 17.1825 8.62393 17.7462C9.94645 18.31 11.4055 18.4726 12.8197 18.2138C14.2339 17.955 15.5408 17.2863 16.578 16.2907L17.4919 17.9361Z" fill="#686868"/>
</svg>
