<svg width="40" height="25" viewBox="0 0 40 25" fill="none" xmlns="http://www.w3.org/2000/svg">
<g clip-path="url(#clip0_2436_17724)">
<path d="M38.333 24.998H1.667C0.75 24.998 0 24.278 0 23.398V2.59805C0 1.71805 0.75 0.998047 1.667 0.998047H38.333C39.25 0.998047 40 1.71805 40 2.59805V23.398C40 24.278 39.25 24.998 38.333 24.998Z" fill="white"/>
<path d="M14.6701 23.3882V21.9982C14.6921 21.5332 14.3671 21.1382 13.9031 21.1162H13.7871C13.4871 21.0932 13.1841 21.2562 12.9991 21.5102C12.8351 21.2552 12.5571 21.0932 12.2561 21.1162C12.0001 21.0932 11.7461 21.2322 11.6061 21.4402V21.1622H11.1191V23.3652H11.6061V22.1822C11.5601 21.9042 11.7681 21.6492 12.0461 21.6022H12.1401C12.4651 21.6022 12.6281 21.8122 12.6281 22.1822V23.4122H13.1151V22.1822C13.0681 21.9042 13.2771 21.6262 13.5551 21.6022H13.6481C13.9731 21.6022 14.1351 21.8122 14.1351 22.1822V23.4122L14.6691 23.3882H14.6701ZM17.3821 22.2982V21.1852H16.8951V21.4652C16.7331 21.2552 16.4781 21.1392 16.2001 21.1392C15.5501 21.1392 15.0401 21.6492 15.0401 22.2992C15.0401 22.9492 15.5501 23.4592 16.2001 23.4592C16.4781 23.4592 16.7331 23.3422 16.8951 23.1342V23.4122H17.3821V22.2982ZM15.5961 22.2982C15.6201 21.9282 15.9441 21.6482 16.3161 21.6722C16.6861 21.6952 16.9661 22.0202 16.9421 22.3922C16.9191 22.7392 16.6401 23.0172 16.2691 23.0172C15.8971 23.0172 15.5951 22.7372 15.5951 22.3672C15.5721 22.3202 15.5721 22.3202 15.5951 22.2972L15.5961 22.2982ZM27.6811 21.1382C27.8441 21.1382 28.0061 21.1622 28.1461 21.2322C28.2861 21.2782 28.4241 21.3722 28.5161 21.4872C28.6331 21.6022 28.7021 21.7172 28.7721 21.8572C28.8891 22.1572 28.8891 22.4832 28.7721 22.7842C28.7261 22.9242 28.6341 23.0392 28.5181 23.1542C28.4021 23.2712 28.2861 23.3402 28.1481 23.4102C27.8451 23.5262 27.4981 23.5262 27.1961 23.4102C27.0561 23.3642 26.9161 23.2702 26.8261 23.1552C26.7081 23.0392 26.6391 22.9232 26.5691 22.7852C26.4531 22.4832 26.4531 22.1582 26.5691 21.8572C26.6161 21.7172 26.7091 21.6022 26.8251 21.4872C26.9401 21.3702 27.0551 21.3002 27.1951 21.2312C27.3581 21.1612 27.5201 21.1152 27.6831 21.1382H27.6811ZM27.6811 21.6032C27.5891 21.6032 27.4961 21.6262 27.4031 21.6492C27.3111 21.6732 27.2411 21.7432 27.1711 21.7892C27.1011 21.8592 27.0551 21.9292 27.0311 22.0212C26.9631 22.2062 26.9631 22.4152 27.0311 22.6012C27.0551 22.6932 27.1251 22.7632 27.1711 22.8312C27.2411 22.9012 27.3111 22.9482 27.4031 22.9712C27.5891 23.0412 27.7731 23.0412 27.9601 22.9712C28.0521 22.9482 28.1201 22.8792 28.1901 22.8312C28.2601 22.7632 28.3071 22.6932 28.3301 22.6012C28.4001 22.4152 28.4001 22.2062 28.3301 22.0212C28.3071 21.9282 28.2371 21.8592 28.1901 21.7892C28.1201 21.7192 28.0521 21.6732 27.9601 21.6492C27.8661 21.6042 27.7731 21.5792 27.6801 21.6042L27.6811 21.6032ZM20.0041 22.2982C20.0041 21.6032 19.5641 21.1382 18.9611 21.1382C18.3111 21.1382 17.8011 21.6722 17.8241 22.3212C17.8471 22.9712 18.3581 23.4812 19.0071 23.4572C19.3321 23.4572 19.6571 23.3642 19.9121 23.1552L19.6821 22.8072C19.4951 22.9472 19.2621 23.0392 19.0321 23.0392C18.7061 23.0622 18.4051 22.8292 18.3591 22.5062H20.0051V22.2962L20.0041 22.2982ZM18.3581 22.0882C18.3811 21.7882 18.6361 21.5562 18.9381 21.5562C19.2381 21.5562 19.4941 21.7882 19.4941 22.0892H18.3581V22.0882ZM22.0221 21.7422C21.8151 21.6262 21.5821 21.5562 21.3271 21.5562C21.0721 21.5562 20.9101 21.6492 20.9101 21.8112C20.9101 21.9742 21.0721 21.9972 21.2801 22.0212L21.5131 22.0432C22.0011 22.1132 22.2791 22.3212 22.2791 22.7152C22.2791 23.1102 21.9091 23.4352 21.2591 23.4352C20.9111 23.4352 20.5861 23.3412 20.3091 23.1552L20.5391 22.7852C20.7491 22.9472 21.0041 23.0172 21.2821 23.0172C21.6061 23.0172 21.7921 22.9232 21.7921 22.7372C21.7921 22.6222 21.6751 22.5522 21.3971 22.5072L21.1651 22.4832C20.6781 22.4132 20.4001 22.1812 20.4001 21.8332C20.4001 21.3932 20.7701 21.1152 21.3271 21.1152C21.6521 21.1152 21.9541 21.1852 22.2321 21.3472L22.0221 21.7412V21.7422ZM24.3421 21.6262H23.5541V22.6232C23.5541 22.8532 23.6241 22.9932 23.8791 22.9932C24.0191 22.9932 24.1791 22.9472 24.2961 22.8782L24.4361 23.2952C24.2501 23.4112 24.0411 23.4572 23.8321 23.4572C23.2521 23.4572 23.0671 23.1552 23.0671 22.6452V21.6252H22.6271V21.1852H23.0671V20.5122H23.5541V21.1842H24.3441V21.6242L24.3421 21.6262ZM26.0121 21.1162C26.1291 21.1162 26.2451 21.1392 26.3621 21.1862L26.2221 21.6492C26.1291 21.6042 26.0121 21.6042 25.9201 21.6042C25.5951 21.6042 25.4561 21.8122 25.4561 22.1842V23.4342H24.9691V21.2342H25.4561V21.5112C25.5721 21.2562 25.7811 21.1412 26.0131 21.1172L26.0121 21.1162Z" fill="black"/>
<path d="M23.64 4.28516H16.335V17.4082H23.641" fill="#7673C0"/>
<path d="M16.8 10.8461C16.8 8.29612 17.983 5.86112 20 4.28612C16.384 1.43312 11.12 2.05812 8.28995 5.69812C5.43495 9.31812 6.05995 14.5781 9.70295 17.4081C12.741 19.7951 16.986 19.7951 20.023 17.4081C17.983 15.8301 16.8 13.4181 16.8 10.8461Z" fill="#EB001B"/>
<path d="M33.5 10.8462C33.5 15.4592 29.765 19.1922 25.15 19.1922C23.27 19.1922 21.46 18.5662 20 17.4072C23.618 14.5772 24.245 9.31515 21.415 5.69715C20.997 5.16515 20.533 4.70115 20 4.28415C23.618 1.43515 28.883 2.05815 31.736 5.69815C32.873 7.16115 33.5 8.99215 33.5 10.8482V10.8462Z" fill="#00A1DF"/>
</g>
<defs>
<clipPath id="clip0_2436_17724">
<rect width="40" height="24" fill="white" transform="translate(0 0.998047)"/>
</clipPath>
</defs>
</svg>
