<svg width="40" height="25" viewBox="0 0 40 25" fill="none" xmlns="http://www.w3.org/2000/svg">
<g clip-path="url(#clip0_2436_17709)">
<path d="M0 2.92505C0 1.86105 0.892 0.998047 1.992 0.998047H38.008C39.108 0.998047 40 1.86105 40 2.92505V23.071C40 24.135 39.108 24.998 38.008 24.998H1.992C0.892 24.998 0 24.135 0 23.071V2.92505Z" fill="white"/>
<path d="M11.085 23.1982V21.8382C11.085 21.3162 10.767 20.9752 10.221 20.9752C9.94896 20.9752 9.65296 21.0652 9.44796 21.3612C9.28796 21.1112 9.06196 20.9752 8.72096 20.9752C8.49296 20.9752 8.26596 21.0432 8.08396 21.2932V21.0212H7.60596V23.1982H8.08396V21.9962C8.08396 21.6102 8.28796 21.4292 8.60696 21.4292C8.92496 21.4292 9.08496 21.6342 9.08496 21.9972V23.1982H9.56196V21.9962C9.56196 21.6102 9.79196 21.4292 10.086 21.4292C10.406 21.4292 10.564 21.6342 10.564 21.9972V23.1982H11.087H11.085ZM18.16 21.0212H17.386V20.3632H16.908V21.0212H16.476V21.4512H16.908V22.4492C16.908 22.9492 17.113 23.2442 17.658 23.2442C17.864 23.2442 18.091 23.1762 18.25 23.0842L18.114 22.6772C17.978 22.7672 17.818 22.7912 17.704 22.7912C17.477 22.7912 17.386 22.6542 17.386 22.4282V21.4522H18.16V21.0222V21.0212ZM22.208 20.9752C21.935 20.9752 21.754 21.1112 21.64 21.2932V21.0212H21.162V23.1982H21.64V21.9732C21.64 21.6102 21.8 21.4062 22.095 21.4062C22.185 21.4062 22.299 21.4292 22.39 21.4522L22.527 20.9982C22.437 20.9752 22.299 20.9752 22.207 20.9752H22.208ZM16.09 21.2022C15.862 21.0422 15.544 20.9752 15.202 20.9752C14.656 20.9752 14.292 21.2472 14.292 21.6782C14.292 22.0412 14.566 22.2452 15.042 22.3132L15.272 22.3362C15.522 22.3812 15.657 22.4492 15.657 22.5632C15.657 22.7232 15.475 22.8352 15.157 22.8352C14.837 22.8352 14.587 22.7222 14.429 22.6082L14.201 22.9712C14.451 23.1512 14.791 23.2432 15.133 23.2432C15.77 23.2432 16.133 22.9482 16.133 22.5402C16.133 22.1552 15.838 21.9502 15.383 21.8822L15.156 21.8602C14.951 21.8372 14.792 21.7922 14.792 21.6562C14.792 21.4962 14.952 21.4062 15.202 21.4062C15.474 21.4062 15.747 21.5202 15.884 21.5882L16.089 21.2022H16.09ZM28.782 20.9752C28.509 20.9752 28.327 21.1112 28.214 21.2932V21.0212H27.736V23.1982H28.214V21.9732C28.214 21.6102 28.374 21.4062 28.669 21.4062C28.759 21.4062 28.872 21.4292 28.963 21.4522L29.1 20.9982C29.01 20.9752 28.873 20.9752 28.782 20.9752ZM22.686 22.1092C22.686 22.7692 23.141 23.2442 23.846 23.2442C24.166 23.2442 24.392 23.1762 24.62 22.9942L24.392 22.6092C24.21 22.7452 24.028 22.8132 23.822 22.8132C23.437 22.8132 23.164 22.5412 23.164 22.1102C23.164 21.7032 23.437 21.4302 23.824 21.4082C24.028 21.4082 24.21 21.4762 24.392 21.6122L24.62 21.2272C24.392 21.0452 24.165 20.9772 23.846 20.9772C23.141 20.9772 22.686 21.4542 22.686 22.1112V22.1092ZM27.099 22.1092V21.0222H26.619V21.2942C26.461 21.0902 26.234 20.9762 25.939 20.9762C25.324 20.9762 24.846 21.4532 24.846 22.1102C24.846 22.7702 25.324 23.2452 25.938 23.2452C26.255 23.2452 26.483 23.1322 26.618 22.9282V23.2002H27.098V22.1102L27.099 22.1092ZM25.346 22.1092C25.346 21.7252 25.596 21.4072 26.006 21.4072C26.393 21.4072 26.666 21.7022 26.666 22.1102C26.666 22.4972 26.393 22.8142 26.006 22.8142C25.596 22.7922 25.346 22.4972 25.346 22.1112V22.1092ZM19.636 20.9762C19 20.9762 18.546 21.4302 18.546 22.1102C18.546 22.7922 19 23.2452 19.66 23.2452C19.98 23.2452 20.298 23.1552 20.548 22.9502L20.32 22.6102C20.14 22.7462 19.91 22.8372 19.684 22.8372C19.388 22.8372 19.092 22.7012 19.024 22.3152H20.639V22.1352C20.661 21.4312 20.251 20.9772 19.637 20.9772L19.636 20.9762ZM19.636 21.3862C19.933 21.3862 20.138 21.5662 20.183 21.9062H19.046C19.091 21.6112 19.296 21.3862 19.636 21.3862ZM31.488 22.1102V20.1602H31.008V21.2952C30.85 21.0912 30.623 20.9772 30.328 20.9772C29.713 20.9772 29.235 21.4542 29.235 22.1112C29.235 22.7712 29.713 23.2462 30.327 23.2462C30.645 23.2462 30.872 23.1332 31.007 22.9292V23.2012H31.487V22.1112L31.488 22.1102ZM29.736 22.1102C29.736 21.7262 29.986 21.4082 30.396 21.4082C30.782 21.4082 31.056 21.7032 31.056 22.1112C31.056 22.4982 30.782 22.8152 30.396 22.8152C29.986 22.7932 29.736 22.4982 29.736 22.1122V22.1102ZM13.766 22.1102V21.0232H13.29V21.2952C13.13 21.0912 12.903 20.9772 12.607 20.9772C11.992 20.9772 11.514 21.4542 11.514 22.1112C11.514 22.7712 11.992 23.2462 12.606 23.2462C12.924 23.2462 13.151 23.1332 13.288 22.9292V23.2012H13.765V22.1112L13.766 22.1102ZM11.993 22.1102C11.993 21.7262 12.243 21.4082 12.653 21.4082C13.039 21.4082 13.313 21.7032 13.313 22.1112C13.313 22.4982 13.039 22.8152 12.653 22.8152C12.243 22.7932 11.993 22.4982 11.993 22.1122V22.1102Z" fill="black"/>
<path d="M23.0952 4.48828H15.9302V17.3243H23.0952" fill="#FF5F00"/>
<path d="M16.3818 10.9082C16.3818 8.29816 17.6118 5.98616 19.4988 4.48816C18.1088 3.40116 16.3588 2.74316 14.4488 2.74316C9.92079 2.74316 6.25879 6.39316 6.25879 10.9072C6.25879 15.4172 9.92079 19.0692 14.4488 19.0692C16.3588 19.0692 18.1088 18.4122 19.4988 17.3232C17.6088 15.8492 16.3808 13.5132 16.3808 10.9062L16.3818 10.9082Z" fill="#EB001B"/>
<path d="M32.76 10.9082C32.76 15.4182 29.096 19.0702 24.57 19.0702C22.66 19.0702 20.908 18.4132 19.52 17.3242C21.43 15.8282 22.636 13.5142 22.636 10.9072C22.636 8.29719 21.408 5.98519 19.52 4.48719C20.908 3.40019 22.66 2.74219 24.57 2.74219C29.096 2.74219 32.76 6.41619 32.76 10.9062V10.9082Z" fill="#F79E1B"/>
</g>
<defs>
<clipPath id="clip0_2436_17709">
<rect width="40" height="24" fill="white" transform="translate(0 0.998047)"/>
</clipPath>
</defs>
</svg>
