<svg width="44" height="16" viewBox="0 0 44 16" fill="none" xmlns="http://www.w3.org/2000/svg">
<path d="M16.9002 1.19805L11.1002 14.898H7.4002L4.6002 3.99805C4.4002 3.29805 4.3002 3.09805 3.7002 2.79805C2.9002 2.29805 1.5002 1.89805 0.200195 1.59805L0.300195 1.19805H6.3002C7.1002 1.19805 7.8002 1.69805 7.9002 2.59805L9.4002 10.498L13.1002 1.19805H16.9002ZM31.5002 10.398C31.5002 6.79805 26.5002 6.59805 26.5002 4.99805C26.5002 4.49805 27.0002 3.99805 28.0002 3.89805C28.5002 3.79805 29.9002 3.79805 31.5002 4.49805L32.1002 1.59805C31.3002 1.29805 30.2002 0.998047 28.8002 0.998047C25.3002 0.998047 22.8002 2.89805 22.8002 5.49805C22.8002 7.49805 24.6002 8.59805 25.9002 9.19805C27.3002 9.89805 27.7002 10.298 27.7002 10.898C27.7002 11.798 26.6002 12.198 25.6002 12.198C23.8002 12.198 22.8002 11.698 22.0002 11.298L21.4002 14.298C22.2002 14.698 23.7002 14.998 25.3002 14.998C29.0002 15.098 31.5002 13.298 31.5002 10.398ZM40.7002 14.898H44.0002L41.1002 1.19805H38.1002C37.4002 1.19805 36.8002 1.59805 36.6002 2.19805L31.3002 14.898H35.0002L35.7002 12.898H40.2002L40.7002 14.898ZM36.8002 10.098L38.7002 4.99805L39.8002 10.098H36.8002ZM21.9002 1.19805L19.0002 14.898H15.5002L18.4002 1.19805H21.9002Z" fill="#1434CB"/>
</svg>
